# xmcd CD database file
#
# Track frame offsets:
#	183
#	29175
#	60930
#	82520
#	108348
#	134613
#	141995
#	164598
#	180260
#	192938
#	197965
#	213960
#
# Disc length: 2984 seconds
#
# Revision: 0
# Processed by: cddbd v1.5PL3 Copyright (c) Steve Scherf et al.
# Submitted via: CDex 1.51
#
DISCID=a80ba60c
DTITLE=Dancing Poets - Fragments of Truth
DYEAR=1993
DGENRE=New Age
TTITLE0=Oceanic
TTITLE1=Satsang
TTITLE2=3 maybe 1
TTITLE3=Alto Paradiso
TTITLE4=Mysterious Pluto
TTITLE5=Chasing Tale
TTITLE6=Mandala
TTITLE7=Vastness
TTITLE8=Mango Chutney
TTITLE9=Plutonian Return
TTITLE10=Dance of the Poet
TTITLE11=Satsang Reprise
EXTD=YEAR: 1993
EXTT0=
EXTT1=
EXTT2=
EXTT3=
EXTT4=
EXTT5=
EXTT6=
EXTT7=
EXTT8=
EXTT9=
EXTT10=
EXTT11=
PLAYORDER=
